<svg width="229" height="71" viewBox="0 0 229 71" fill="none" xmlns="http://www.w3.org/2000/svg">
<path d="M49.9514 18.8672H20.0484C19.3959 18.8672 18.8672 19.3961 18.8672 20.0484V49.9516C18.8672 50.6039 19.3959 51.1328 20.0484 51.1328H49.9514C50.6039 51.1328 51.1326 50.6039 51.1326 49.9516V20.0484C51.1326 19.3961 50.6039 18.8672 49.9514 18.8672ZM48.7702 48.7705H21.2296V21.2296H48.7702V48.7705Z" fill="black"/>
<path d="M29.2758 41.9053H40.7238C41.3763 41.9053 41.905 41.3765 41.905 40.7241V29.2761C41.905 28.6237 41.3763 28.0948 40.7238 28.0948H29.2758C28.6233 28.0948 28.0946 28.6237 28.0946 29.2761V40.7241C28.0946 41.3765 28.6233 41.9053 29.2758 41.9053ZM30.457 30.4571H39.5426V39.5428H30.457V30.4571Z" fill="black"/>
<path d="M48.1178 2.36211C49.2139 2.36211 49.7056 0.933954 48.8481 0.253424C47.9964 -0.42254 46.7164 0.384458 46.9664 1.44707C47.0909 1.97578 47.5735 2.36211 48.1178 2.36211Z" fill="black"/>
<path d="M22.5378 67.8374C22.1513 67.5829 21.6482 67.5758 21.2549 67.8196C20.7996 68.1018 20.5917 68.6812 20.7612 69.1894C20.9152 69.6509 21.3462 69.9793 21.8335 69.9986C22.3361 70.0186 22.801 69.7111 22.9831 69.2436C23.1806 68.7362 22.9939 68.1375 22.5378 67.8374Z" fill="black"/>
<path d="M68.8183 29.6224C69.4708 29.6224 69.9995 29.0935 69.9995 28.4412C69.9995 27.7888 69.4708 27.26 68.8183 27.26H55.8573V23.0635H68.8183C69.4708 23.0635 69.9995 22.5347 69.9995 21.8823C69.9995 21.23 69.4708 20.7011 68.8183 20.7011H55.8573V19.8519C55.8573 16.7036 53.2958 14.1423 50.1476 14.1423H49.2984V4.9768C49.2984 4.32446 48.7697 3.7956 48.1172 3.7956C47.4647 3.7956 46.936 4.32446 46.936 4.9768V14.1423H42.7396V1.1812C42.7396 0.528864 42.2109 0 41.5584 0C40.9059 0 40.3772 0.528864 40.3772 1.1812V14.1423H36.1808V1.1812C36.1808 0.528864 35.6521 0 34.9996 0C34.3471 0 33.8184 0.528864 33.8184 1.1812V14.1423H29.6219V1.1812C29.6219 0.528864 29.0932 0 28.4407 0C27.7882 0 27.2595 0.528864 27.2595 1.1812V14.1423H23.0631V1.1812C23.0631 0.528864 22.5344 0 21.8819 0C21.2294 0 20.7007 0.528864 20.7007 1.1812V14.1423H19.8515C16.7032 14.1423 14.1419 16.7036 14.1419 19.8519V20.7011H1.1812C0.528703 20.7011 0 21.23 0 21.8823C0 22.5347 0.528703 23.0635 1.1812 23.0635H14.1424V27.26H1.1812C0.528703 27.26 0 27.7888 0 28.4412C0 29.0935 0.528703 29.6224 1.1812 29.6224H14.1424V33.8188H1.1812C0.528703 33.8188 0 34.3477 0 35C0 35.6523 0.528703 36.1812 1.1812 36.1812H14.1424V40.3776H1.1812C0.528703 40.3776 0 40.9065 0 41.5588C0 42.2112 0.528703 42.74 1.1812 42.74H14.1424V46.9365H1.1812C0.528703 46.9365 0 47.4653 0 48.1177C0 48.77 0.528703 49.2989 1.1812 49.2989H14.1424V50.1481C14.1424 53.2964 16.7037 55.8577 19.852 55.8577H20.7012V65.0234C20.7012 65.6757 21.2299 66.2046 21.8824 66.2046C22.5348 66.2046 23.0635 65.6757 23.0635 65.0234V55.8577H27.2599V68.8188C27.2599 69.4711 27.7886 70 28.4411 70C29.0936 70 29.6223 69.4711 29.6223 68.8188V55.8577H33.8189V68.8188C33.8189 69.4711 34.3476 70 35.0001 70C35.6526 70 36.1813 69.4711 36.1813 68.8188V55.8577H40.3777V68.8188C40.3777 69.4711 40.9064 70 41.5589 70C42.2114 70 42.7401 69.4711 42.7401 68.8188V55.8577H46.9365V68.8188C46.9365 69.4711 47.4652 70 48.1176 70C48.7701 70 49.2988 69.4711 49.2988 68.8188V55.8577H50.148C53.2963 55.8577 55.8578 53.2964 55.8578 50.1481V49.2989H68.8188C69.4713 49.2989 70 48.77 70 48.1177C70 47.4653 69.4713 46.9365 68.8188 46.9365H55.8578V42.74H68.8188C69.4713 42.74 70 42.2112 70 41.5588C70 40.9065 69.4713 40.3776 68.8188 40.3776H55.8578V36.1812H68.8188C69.4713 36.1812 70 35.6523 70 35C70 34.3477 69.4713 33.8188 68.8188 33.8188H55.8578V29.6224H68.8183ZM53.4949 50.1479C53.4949 51.9936 51.9934 53.4951 50.1476 53.4951H19.852C18.0063 53.4951 16.5048 51.9936 16.5048 50.1479V19.8521C16.5048 18.0064 18.0063 16.5049 19.852 16.5049H50.1476C51.9934 16.5049 53.4949 18.0064 53.4949 19.8521V50.1479Z" fill="black"/>
<path d="M89.2727 37.7273H92.3636L94.9545 41.1364L95.6364 42.0455L99.5 47.1818H96.4091L93.8636 43.7727L93.2273 42.9091L89.2727 37.7273ZM100.455 33.3636C100.455 35.8182 100.011 37.9394 99.125 39.7273C98.2386 41.5152 97.0227 42.8939 95.4773 43.8636C93.9318 44.8333 92.1667 45.3182 90.1818 45.3182C88.197 45.3182 86.4318 44.8333 84.8864 43.8636C83.3409 42.8939 82.125 41.5152 81.2386 39.7273C80.3523 37.9394 79.9091 35.8182 79.9091 33.3636C79.9091 30.9091 80.3523 28.7879 81.2386 27C82.125 25.2121 83.3409 23.8333 84.8864 22.8636C86.4318 21.8939 88.197 21.4091 90.1818 21.4091C92.1667 21.4091 93.9318 21.8939 95.4773 22.8636C97.0227 23.8333 98.2386 25.2121 99.125 27C100.011 28.7879 100.455 30.9091 100.455 33.3636ZM97.7273 33.3636C97.7273 31.3485 97.3902 29.6477 96.7159 28.2614C96.0492 26.875 95.1439 25.8258 94 25.1136C92.8636 24.4015 91.5909 24.0455 90.1818 24.0455C88.7727 24.0455 87.4962 24.4015 86.3523 25.1136C85.2159 25.8258 84.3106 26.875 83.6364 28.2614C82.9697 29.6477 82.6364 31.3485 82.6364 33.3636C82.6364 35.3788 82.9697 37.0795 83.6364 38.4659C84.3106 39.8523 85.2159 40.9015 86.3523 41.6136C87.4962 42.3258 88.7727 42.6818 90.1818 42.6818C91.5909 42.6818 92.8636 42.3258 94 41.6136C95.1439 40.9015 96.0492 39.8523 96.7159 38.4659C97.3902 37.0795 97.7273 35.3788 97.7273 33.3636ZM114.83 32.1136V34.6136H104.648V32.1136H114.83ZM138.639 29H135.821C135.654 28.1894 135.363 27.4773 134.946 26.8636C134.537 26.25 134.037 25.7348 133.446 25.3182C132.863 24.8939 132.215 24.5758 131.503 24.3636C130.791 24.1515 130.048 24.0455 129.276 24.0455C127.866 24.0455 126.59 24.4015 125.446 25.1136C124.31 25.8258 123.404 26.875 122.73 28.2614C122.063 29.6477 121.73 31.3485 121.73 33.3636C121.73 35.3788 122.063 37.0795 122.73 38.4659C123.404 39.8523 124.31 40.9015 125.446 41.6136C126.59 42.3258 127.866 42.6818 129.276 42.6818C130.048 42.6818 130.791 42.5758 131.503 42.3636C132.215 42.1515 132.863 41.8371 133.446 41.4205C134.037 40.9962 134.537 40.4773 134.946 39.8636C135.363 39.2424 135.654 38.5303 135.821 37.7273H138.639C138.427 38.9167 138.041 39.9811 137.48 40.9205C136.92 41.8598 136.223 42.6591 135.389 43.3182C134.556 43.9697 133.62 44.4659 132.582 44.8068C131.552 45.1477 130.45 45.3182 129.276 45.3182C127.291 45.3182 125.526 44.8333 123.98 43.8636C122.435 42.8939 121.219 41.5152 120.332 39.7273C119.446 37.9394 119.003 35.8182 119.003 33.3636C119.003 30.9091 119.446 28.7879 120.332 27C121.219 25.2121 122.435 23.8333 123.98 22.8636C125.526 21.8939 127.291 21.4091 129.276 21.4091C130.45 21.4091 131.552 21.5795 132.582 21.9205C133.62 22.2614 134.556 22.7614 135.389 23.4205C136.223 24.072 136.92 24.8674 137.48 25.8068C138.041 26.7386 138.427 27.803 138.639 29ZM143.193 45V21.7273H151.057C152.883 21.7273 154.375 22.0568 155.534 22.7159C156.701 23.3674 157.564 24.25 158.125 25.3636C158.686 26.4773 158.966 27.7197 158.966 29.0909C158.966 30.4621 158.686 31.7083 158.125 32.8295C157.572 33.9508 156.716 34.8447 155.557 35.5114C154.398 36.1705 152.913 36.5 151.102 36.5H145.466V34H151.011C152.261 34 153.265 33.7841 154.023 33.3523C154.78 32.9205 155.33 32.3371 155.67 31.6023C156.019 30.8598 156.193 30.0227 156.193 29.0909C156.193 28.1591 156.019 27.3258 155.67 26.5909C155.33 25.8561 154.777 25.2803 154.011 24.8636C153.246 24.4394 152.231 24.2273 150.966 24.2273H146.011V45H143.193ZM178.778 21.7273H181.597V37.1364C181.597 38.7273 181.222 40.1477 180.472 41.3977C179.729 42.6402 178.68 43.6212 177.324 44.3409C175.968 45.053 174.377 45.4091 172.551 45.4091C170.725 45.4091 169.134 45.053 167.778 44.3409C166.422 43.6212 165.369 42.6402 164.619 41.3977C163.877 40.1477 163.506 38.7273 163.506 37.1364V21.7273H166.324V36.9091C166.324 38.0455 166.574 39.0568 167.074 39.9432C167.574 40.822 168.286 41.5152 169.21 42.0227C170.142 42.5227 171.256 42.7727 172.551 42.7727C173.847 42.7727 174.96 42.5227 175.892 42.0227C176.824 41.5152 177.536 40.822 178.028 39.9432C178.528 39.0568 178.778 38.0455 178.778 36.9091V21.7273Z" fill="black"/>
</svg>
