<svg width="60" height="60" viewBox="0 0 60 60" fill="none" xmlns="http://www.w3.org/2000/svg">
<path d="M30 0C13.4306 0 0 13.4306 0 30C0 46.5694 13.4306 60 30 60C46.5694 60 60 46.5694 60 30C60 13.4306 46.5694 0 30 0ZM30 58.125C14.4919 58.125 1.875 45.5081 1.875 30C1.875 14.4919 14.4919 1.875 30 1.875C45.5081 1.875 58.125 14.4919 58.125 30C58.125 45.5081 45.5081 58.125 30 58.125Z" fill="black"/>
<path d="M30.165 12.4519C26.3325 12.4519 23.2162 15.57 23.2162 19.4025C23.2162 23.235 26.3325 26.3513 30.165 26.3513C33.9975 26.3513 37.1156 23.235 37.1156 19.4025C37.1156 15.57 33.9975 12.4519 30.165 12.4519ZM30.165 24.4763C27.3675 24.4763 25.0912 22.2 25.0912 19.4025C25.0912 16.605 27.3675 14.3269 30.165 14.3269C32.9625 14.3269 35.2406 16.605 35.2406 19.4025C35.2406 22.2 32.9625 24.4763 30.165 24.4763Z" fill="black"/>
<path d="M36.81 29.5613L30.165 34.5713L23.52 29.5613C15.3412 32.0157 15.4443 40.2957 15.4443 40.2957H30.165H44.8856C44.8856 40.2957 44.9887 32.0157 36.81 29.5613ZM30.1631 38.4188H17.5575C18.0131 36.3788 19.3387 33.1819 23.1881 31.6594L29.0362 36.0675C29.37 36.3188 29.7675 36.4444 30.165 36.4444C30.5625 36.4444 30.96 36.3188 31.2937 36.0675L37.1418 31.6575C41.01 33.1838 42.3281 36.3769 42.7781 38.4188H30.1631Z" fill="black"/>
</svg>
