<svg width="40" height="40" viewBox="0 0 40 40" fill="none" xmlns="http://www.w3.org/2000/svg">
<path d="M40 36.8359L28.191 25.0269C30.1512 22.4111 31.3275 19.1762 31.3275 15.6638C31.3275 7.02631 24.3012 0 15.6638 0C7.02631 0 0 7.02631 0 15.6638C0 24.3012 7.02631 31.3275 15.6638 31.3275C19.1762 31.3275 22.4111 30.1512 25.0269 28.191L36.8359 40L40 36.8359ZM1.49179 15.6638C1.49179 7.84903 7.84903 1.49179 15.6638 1.49179C23.4785 1.49179 29.8357 7.84903 29.8357 15.6638C29.8357 23.4785 23.4785 29.8357 15.6638 29.8357C7.84903 29.8357 1.49179 23.4785 1.49179 15.6638ZM26.5292 26.9215C26.6619 26.7932 26.7925 26.6627 26.9208 26.5299C27.0297 26.4173 27.1475 26.3136 27.2527 26.198L37.8906 36.8359L36.8352 37.8914L26.198 27.2527C26.3136 27.1475 26.4165 27.0297 26.5292 26.9215Z" fill="black"/>
</svg>
